<svg width="517" height="518" viewBox="0 0 517 518" fill="none" xmlns="http://www.w3.org/2000/svg">
<g filter="url(#filter0_d_113_103)">
<path fill-rule="evenodd" clip-rule="evenodd" d="M425.65 284.348C406.92 292.851 386.116 297.587 364.207 297.587C282.03 297.587 215.413 230.97 215.413 148.793C215.413 127.037 220.083 106.37 228.474 87.7426C248.378 88.9914 267.533 92.9989 285.561 99.3871C276.93 113.47 271.955 130.036 271.955 147.763C271.955 198.966 313.462 240.473 364.664 240.473C382.614 240.473 399.372 235.372 413.568 226.54C420.168 244.773 424.326 264.173 425.65 284.348ZM425.65 284.348C477.17 260.958 513 209.06 513 148.793C513 66.6171 446.383 0 364.207 0C303.787 0 251.778 36.012 228.474 87.7426C224.037 87.4641 219.562 87.3228 215.055 87.3228C98.4924 87.3228 4 181.815 4 298.377C4 414.94 98.4924 509.432 215.055 509.432C331.617 509.432 426.109 414.94 426.109 298.377C426.109 293.663 425.955 288.985 425.65 284.348ZM285.561 99.3871C301.859 72.7946 331.19 55.0536 364.664 55.0536C415.867 55.0536 457.374 96.5611 457.374 147.763C457.374 181.016 439.868 210.18 413.568 226.54C392.136 167.324 344.961 120.434 285.561 99.3871Z" fill="url(#paint0_linear_113_103)" fill-opacity="0.3" shape-rendering="crispEdges"/>
</g>
<defs>
<filter id="filter0_d_113_103" x="0" y="0" width="517" height="517.432" filterUnits="userSpaceOnUse" color-interpolation-filters="sRGB">
<feFlood flood-opacity="0" result="BackgroundImageFix"/>
<feColorMatrix in="SourceAlpha" type="matrix" values="0 0 0 0 0 0 0 0 0 0 0 0 0 0 0 0 0 0 127 0" result="hardAlpha"/>
<feOffset dy="4"/>
<feGaussianBlur stdDeviation="2"/>
<feComposite in2="hardAlpha" operator="out"/>
<feColorMatrix type="matrix" values="0 0 0 0 0 0 0 0 0 0 0 0 0 0 0 0 0 0 0.38 0"/>
<feBlend mode="normal" in2="BackgroundImageFix" result="effect1_dropShadow_113_103"/>
<feBlend mode="normal" in="SourceGraphic" in2="effect1_dropShadow_113_103" result="shape"/>
</filter>
<linearGradient id="paint0_linear_113_103" x1="221.158" y1="24.6387" x2="221.158" y2="562.795" gradientUnits="userSpaceOnUse">
<stop stop-color="#B34747"/>
<stop offset="0.21875" stop-color="#FF0000" stop-opacity="0.71"/>
<stop offset="0.515625" stop-color="#77E15C" stop-opacity="0.99"/>
<stop offset="1" stop-color="#C4C4C4" stop-opacity="0.62"/>
</linearGradient>
</defs>
</svg>
